# xmcd
#
# Track frame offsets:
#	150
#	17099
#	30670
#	50357
#	66944
#	79237
#	94423
#	107014
#	122831
#	139256
#	154417
#	170367
#	185628
#	201352
#	216599
#	230779
#	247655
#	259808
#	273557
#
# Disc length: 3873 seconds
#
# Revision: 1
# Processed by: cddbd v1.5.2PL0 Copyright (c) Steve Scherf et al.
# Submitted via: audiograbber 1.83.01
#
DISCID=210f1f13
DTITLE=Utah Phillips - Singing Through The Hard Times CD 2
DYEAR=2009
DGENRE=Country
TTITLE0=Or Else (one-a These Days
TTITLE1=The Soldiers Return
TTITLE2=I Remember Loving You
TTITLE3=Jesse압 Corrido
TTITLE4=Hood River Roll On
TTITLE5=Old Buddy, Goodnight
TTITLE6=Hallelujah I앐 A Bum
TTITLE7=The International, Instrumenalt
TTITLE8=The Faded Roses Of December
TTITLE9=Daddy, What압 A Train
TTITLE10=Bill Mccarran
TTITLE11=He Comes Like Rain
TTITLE12=Look For Me In Butte
TTITLE13=The Miner압 Lullabye
TTITLE14=Larimer Street
TTITLE15=Old George압 Square
TTITLE16=Rock Salt And Nails
TTITLE17=Hobo압 Last Ride
TTITLE18=Singing In The Country
EXTD=
EXTT0=
EXTT1=
EXTT2=
EXTT3=
EXTT4=
EXTT5=
EXTT6=
EXTT7=
EXTT8=
EXTT9=
EXTT10=
EXTT11=
EXTT12=
EXTT13=
EXTT14=
EXTT15=
EXTT16=
EXTT17=
EXTT18=
PLAYORDER=
